<svg width="16" height="15" viewBox="0 0 16 15" fill="none" xmlns="http://www.w3.org/2000/svg">
<path fill-rule="evenodd" clip-rule="evenodd" d="M2.82624 5.76411C4.53689 5.17321 5.89599 3.81409 6.48666 2.10337C6.93631 0.801094 7.54829 0 8.22264 0C8.89695 0 9.50889 0.800977 9.95852 2.10308C10.5493 3.81386 11.9085 5.17304 13.6192 5.76378C14.9214 6.21342 15.7224 6.82537 15.7224 7.49969C15.7224 8.17398 14.9215 8.78591 13.6194 9.23555C11.9086 9.82633 10.5494 11.1856 9.9587 12.8964C9.50905 14.1988 8.89703 15 8.22264 15C7.54821 15 6.93615 14.1987 6.48649 12.8961C5.89591 11.1853 4.53677 9.82617 2.82609 9.23522C1.52458 8.78562 0.724021 8.17382 0.724021 7.49969C0.724021 6.82554 1.52464 6.21372 2.82624 5.76411ZM8.22333 7.5008C8.22333 7.50086 8.22328 7.50091 8.22322 7.50091C8.22315 7.50091 8.2231 7.50086 8.2231 7.5008V7.4992C8.2231 7.49913 8.22315 7.49908 8.22322 7.49908C8.22328 7.49908 8.22333 7.49913 8.22333 7.4992V7.5008Z" fill="#4069CC"/>
</svg>
