<svg width="100" height="100" viewBox="0 0 100 100" fill="none" xmlns="http://www.w3.org/2000/svg">
<path fill-rule="evenodd" clip-rule="evenodd" d="M50 87.5C54.9246 87.5 59.8009 86.53 64.3506 84.6455C68.9003 82.7609 73.0343 79.9987 76.5165 76.5165C79.9987 73.0343 82.7609 68.9003 84.6455 64.3506C86.53 59.8009 87.5 54.9246 87.5 50C87.5 45.0754 86.53 40.1991 84.6455 35.6494C82.7609 31.0997 79.9987 26.9657 76.5165 23.4835C73.0343 20.0013 68.9003 17.2391 64.3506 15.3545C59.8009 13.47 54.9246 12.5 50 12.5C40.0544 12.5 30.5161 16.4509 23.4835 23.4835C16.4509 30.5161 12.5 40.0544 12.5 50C12.5 59.9456 16.4509 69.4839 23.4835 76.5165C30.5161 83.5491 40.0544 87.5 50 87.5ZM47.0542 34.5542C47.836 33.7729 48.8962 33.3342 50.0015 33.3346C51.1068 33.335 52.1666 33.7744 52.9479 34.5562C53.7292 35.3381 54.1679 36.3983 54.1675 37.5036C54.1671 38.6088 53.7277 39.6687 52.9458 40.45L47.5583 45.8333H62.5C63.6051 45.8333 64.6649 46.2723 65.4463 47.0537C66.2277 47.8351 66.6667 48.8949 66.6667 50C66.6667 51.1051 66.2277 52.1649 65.4463 52.9463C64.6649 53.7277 63.6051 54.1667 62.5 54.1667H47.5625L52.9458 59.5542C53.7048 60.34 54.1248 61.3925 54.1153 62.485C54.1058 63.5775 53.6676 64.6225 52.8951 65.3951C52.1225 66.1676 51.0775 66.6058 49.985 66.6153C48.8925 66.6248 47.84 66.2048 47.0542 65.4458L34.5542 52.9458C34.1668 52.5589 33.8594 52.0993 33.6497 51.5935C33.4401 51.0877 33.3321 50.5455 33.3321 49.9979C33.3321 49.4504 33.4401 48.9082 33.6497 48.4023C33.8594 47.8965 34.1668 47.437 34.5542 47.05L47.0542 34.55V34.5542Z" fill="white"/>
</svg>
