<svg width="26" height="26" viewBox="0 0 26 26" fill="none" xmlns="http://www.w3.org/2000/svg">
<path fill-rule="evenodd" clip-rule="evenodd" d="M11.9487 5.49264C9.66227 4.42806 6.19873 3.86243 2.95602 6.51243C2.83656 6.61011 2.74029 6.73312 2.67418 6.87255C2.60806 7.01199 2.57375 7.16437 2.57373 7.31868V20.2322C2.57376 20.4294 2.62974 20.6225 2.73515 20.7891C2.84057 20.9557 2.9911 21.0889 3.16925 21.1734C3.3474 21.2578 3.54585 21.2899 3.74155 21.2661C3.93725 21.2422 4.12215 21.1633 4.27477 21.0385C7.12477 18.7093 10.2477 19.6739 11.9487 20.7729V5.49264ZM14.0321 5.49264V20.7729C15.7331 19.6728 18.855 18.7093 21.706 21.0385C21.8586 21.1633 22.0435 21.2422 22.2392 21.2661C22.4349 21.2899 22.6334 21.2578 22.8115 21.1734C22.9897 21.0889 23.1402 20.9557 23.2456 20.7891C23.3511 20.6225 23.407 20.4294 23.4071 20.2322V7.31868C23.407 7.16437 23.3727 7.01199 23.3066 6.87255C23.2405 6.73312 23.1442 6.61011 23.0248 6.51243C19.7821 3.86243 16.3185 4.4291 14.0321 5.49264Z" fill="#4069CC"/>
</svg>
