<svg width="139" height="28" viewBox="0 0 139 28" fill="none" xmlns="http://www.w3.org/2000/svg">
<path d="M23.382 19.9388L11.8809 15.4922V4.27936L23.382 8.39144V19.9388Z" fill="#E39D58"/>
<path d="M11.8809 24.2389V12.6709L23.382 8.39136V19.9594L11.8809 24.2389Z" fill="#F6B26E"/>
<path d="M0.379395 19.7926V8.55886L11.8806 4.27936V15.5131L0.379395 19.7926Z" fill="#CE863F"/>
<path d="M11.8806 24.2384L0.379395 19.7917V8.55804L11.8806 12.6704V24.2384Z" fill="#EAA763"/>
<path d="M7.09937 7.851L11.9138 12.6989L23.3815 8.41937L18.868 3.77209L7.09937 7.851Z" fill="#EDA45C"/>
<path d="M6.33034 7.72288L0.37915 8.55873L11.88 4.27941L17.5306 3.64398L6.33034 7.72288Z" fill="#EDA45C"/>
<path d="M11.8345 19.2432L14.9902 18.0212L15.0456 20.6959L11.8345 21.8921V19.2432Z" fill="#D9D9D9"/>
<path d="M9.51782 18.4302L11.8345 19.2426V21.892L9.51782 20.989L9.51782 18.4302Z" fill="#CDCBCB"/>
<path d="M31.5483 5.71973H35.9693V13.5913L35.387 14.7127V17.8182L35.9693 18.8965V22.3254H31.5483V5.71973ZM34.5459 16.1792C34.7472 14.8421 35.1426 13.6919 35.732 12.7286C36.3215 11.751 37.0763 10.9962 37.9965 10.4642C38.931 9.91788 39.9733 9.64471 41.1235 9.64471C42.3312 9.64471 43.3879 9.91788 44.2937 10.4642C45.2138 11.0106 45.9255 11.7725 46.4287 12.7502C46.9463 13.7278 47.2051 14.8708 47.2051 16.1792C47.2051 17.4587 46.9463 18.5945 46.4287 19.5866C45.9255 20.5642 45.2138 21.3262 44.2937 21.8726C43.3879 22.4045 42.3312 22.6705 41.1235 22.6705C39.9589 22.6705 38.9166 22.4045 37.9965 21.8726C37.0763 21.3262 36.3215 20.5642 35.732 19.5866C35.1426 18.6089 34.7472 17.4731 34.5459 16.1792ZM42.7625 16.1792C42.7625 15.5609 42.6331 15.0146 42.3743 14.5402C42.1299 14.0657 41.7849 13.6919 41.3392 13.4187C40.8935 13.1456 40.3759 13.009 39.7864 13.009C39.197 13.009 38.6362 13.1456 38.1043 13.4187C37.5723 13.6919 37.1051 14.0657 36.7025 14.5402C36.2999 15.0146 35.9908 15.5609 35.7752 16.1792C35.9908 16.783 36.2999 17.3222 36.7025 17.7966C37.1051 18.2711 37.5723 18.6449 38.1043 18.918C38.6362 19.1768 39.197 19.3062 39.7864 19.3062C40.3759 19.3062 40.8935 19.1768 41.3392 18.918C41.7849 18.6449 42.1299 18.2711 42.3743 17.7966C42.6331 17.3222 42.7625 16.783 42.7625 16.1792ZM56.445 22.6705C54.8635 22.6705 53.4833 22.4045 52.3044 21.8726C51.1255 21.3262 50.2053 20.5642 49.544 19.5866C48.8826 18.5945 48.5519 17.4587 48.5519 16.1792C48.5519 14.8708 48.8826 13.7278 49.544 12.7502C50.2053 11.7725 51.1255 11.0106 52.3044 10.4642C53.4833 9.91788 54.8635 9.64471 56.445 9.64471C58.0122 9.64471 59.3852 9.91788 60.5641 10.4642C61.7574 11.0106 62.6848 11.7725 63.3461 12.7502C64.0075 13.7278 64.3381 14.8708 64.3381 16.1792C64.3381 17.4587 64.0075 18.5945 63.3461 19.5866C62.6848 20.5642 61.7574 21.3262 60.5641 21.8726C59.3852 22.4045 58.0122 22.6705 56.445 22.6705ZM56.445 19.414C57.1639 19.414 57.7749 19.2847 58.2781 19.0259C58.7957 18.7671 59.1911 18.3933 59.4643 17.9044C59.7374 17.4156 59.874 16.8405 59.874 16.1792C59.874 15.4891 59.7374 14.9068 59.4643 14.4323C59.1911 13.9435 58.7957 13.5697 58.2781 13.3109C57.7749 13.0521 57.1639 12.9227 56.445 12.9227C55.7262 12.9227 55.108 13.0521 54.5904 13.3109C54.0728 13.5697 53.6774 13.9435 53.4043 14.4323C53.1311 14.9068 52.9945 15.4819 52.9945 16.1576C52.9945 16.8333 53.1311 17.4156 53.4043 17.9044C53.6774 18.3933 54.0728 18.7671 54.5904 19.0259C55.108 19.2847 55.7262 19.414 56.445 19.414ZM63.7995 22.3254L69.5145 15.4244L69.4929 16.7183L64.123 10.0113H69.0184L72.4905 14.2598H71.1966L74.6687 10.0113H79.4994L73.9355 16.7614L73.7198 15.0146L79.8445 22.3254H74.8412L71.0672 17.775H72.4474L68.7165 22.3254H63.7995ZM80.7664 10.0113H85.1874V13.5481L84.9933 14.0657V17.5163L85.1874 18.5298V25.8838H80.7664V10.0113ZM83.7857 16.1792C83.9726 14.8421 84.3607 13.6919 84.9502 12.7286C85.5541 11.751 86.3161 10.9962 87.2362 10.4642C88.1563 9.91788 89.1987 9.64471 90.3632 9.64471C91.5709 9.64471 92.6277 9.91788 93.5334 10.4642C94.4536 11.0106 95.1652 11.7725 95.6684 12.7502C96.186 13.7278 96.4448 14.8708 96.4448 16.1792C96.4448 17.4587 96.186 18.5945 95.6684 19.5866C95.1652 20.5642 94.4536 21.3262 93.5334 21.8726C92.6277 22.4045 91.5709 22.6705 90.3632 22.6705C89.1987 22.6705 88.1563 22.4045 87.2362 21.8726C86.3161 21.3262 85.5612 20.5642 84.9718 19.5866C84.3823 18.6089 83.9869 17.4731 83.7857 16.1792ZM92.0023 16.1792C92.0023 15.5609 91.8729 15.0146 91.6141 14.5402C91.3697 14.0657 91.0174 13.6919 90.5573 13.4187C90.1116 13.1456 89.6013 13.009 89.0262 13.009C88.4367 13.009 87.876 13.1456 87.344 13.4187C86.8121 13.6919 86.3448 14.0657 85.9422 14.5402C85.5397 15.0146 85.2306 15.5609 85.0149 16.1792C85.2306 16.783 85.5397 17.3222 85.9422 17.7966C86.3448 18.2711 86.8121 18.6449 87.344 18.918C87.876 19.1768 88.4367 19.3062 89.0262 19.3062C89.6013 19.3062 90.1116 19.1768 90.5573 18.918C91.0174 18.6449 91.3697 18.2711 91.6141 17.7966C91.8729 17.3222 92.0023 16.783 92.0023 16.1792ZM109.48 22.3254L108.919 17.8829L109.501 16.1792L108.919 14.4755L109.48 10.0113H114.052L113.275 16.1576L114.052 22.3254H109.48ZM110.515 16.1792C110.314 17.4731 109.911 18.6089 109.307 19.5866C108.718 20.5642 107.963 21.3262 107.043 21.8726C106.137 22.4045 105.102 22.6705 103.937 22.6705C102.73 22.6705 101.666 22.4045 100.746 21.8726C99.8399 21.3262 99.1283 20.5642 98.6107 19.5866C98.0931 18.5945 97.8343 17.4587 97.8343 16.1792C97.8343 14.8708 98.0931 13.7278 98.6107 12.7502C99.1283 11.7725 99.8399 11.0106 100.746 10.4642C101.666 9.91788 102.73 9.64471 103.937 9.64471C105.102 9.64471 106.137 9.91788 107.043 10.4642C107.963 10.9962 108.725 11.751 109.329 12.7286C109.933 13.6919 110.328 14.8421 110.515 16.1792ZM102.298 16.1792C102.298 16.783 102.421 17.3222 102.665 17.7966C102.924 18.2711 103.276 18.6449 103.722 18.918C104.167 19.1768 104.678 19.3062 105.253 19.3062C105.857 19.3062 106.425 19.1768 106.957 18.918C107.489 18.6449 107.956 18.2711 108.358 17.7966C108.761 17.3222 109.063 16.783 109.264 16.1792C109.063 15.5609 108.761 15.0146 108.358 14.5402C107.956 14.0657 107.489 13.6919 106.957 13.4187C106.425 13.1456 105.857 13.009 105.253 13.009C104.678 13.009 104.167 13.1456 103.722 13.4187C103.276 13.6919 102.924 14.0657 102.665 14.5402C102.421 15.0146 102.298 15.5609 102.298 16.1792ZM116.169 5.71973H120.59V22.3254H116.169V5.71973ZM137.29 18.3142C137.29 19.2631 137.003 20.061 136.428 20.708C135.852 21.355 135.033 21.8438 133.969 22.1745C132.905 22.5052 131.626 22.6705 130.13 22.6705C128.592 22.6705 127.241 22.4836 126.076 22.1098C124.926 21.736 124.027 21.2112 123.38 20.5355C122.733 19.8597 122.388 19.0762 122.345 18.1848H126.809C126.91 18.5155 127.104 18.803 127.391 19.0474C127.693 19.2775 128.089 19.4572 128.578 19.5866C129.066 19.7016 129.649 19.7591 130.324 19.7591C131.201 19.7591 131.863 19.6728 132.309 19.5003C132.769 19.3278 132.999 19.069 132.999 18.7239C132.999 18.4508 132.826 18.2495 132.481 18.1201C132.136 17.9763 131.547 17.8685 130.713 17.7966L128.534 17.6241C127.082 17.5234 125.925 17.3078 125.062 16.9771C124.214 16.6321 123.603 16.1935 123.229 15.6616C122.855 15.1153 122.669 14.497 122.669 13.8069C122.669 12.8724 122.956 12.1032 123.531 11.4994C124.121 10.8812 124.933 10.4211 125.968 10.1192C127.018 9.80286 128.24 9.64471 129.634 9.64471C131.015 9.64471 132.244 9.82443 133.322 10.1839C134.4 10.5433 135.263 11.0465 135.91 11.6935C136.557 12.3261 136.931 13.0737 137.031 13.9363H132.567C132.495 13.6632 132.337 13.4187 132.093 13.2031C131.848 12.973 131.511 12.7861 131.079 12.6424C130.648 12.4986 130.094 12.4267 129.419 12.4267C128.628 12.4267 128.024 12.513 127.607 12.6855C127.205 12.858 127.003 13.1024 127.003 13.4187C127.003 13.6632 127.126 13.8572 127.37 14.001C127.629 14.1448 128.103 14.2454 128.793 14.3029L131.662 14.5186C133.085 14.6049 134.206 14.8133 135.026 15.144C135.845 15.4603 136.428 15.8844 136.773 16.4164C137.118 16.9484 137.29 17.581 137.29 18.3142Z" fill="#FDFEFF"/>
</svg>
