<svg width="100" height="101" viewBox="0 0 100 101" fill="none" xmlns="http://www.w3.org/2000/svg">
<path fill-rule="evenodd" clip-rule="evenodd" d="M50.0035 88.2981C54.928 88.2981 59.8044 87.3281 64.3541 85.4436C68.9038 83.559 73.0378 80.7968 76.52 77.3146C80.0022 73.8324 82.7644 69.6984 84.649 65.1487C86.5335 60.599 87.5035 55.7227 87.5035 50.7981C87.5035 45.8735 86.5335 40.9972 84.649 36.4475C82.7644 31.8978 80.0022 27.7638 76.52 24.2816C73.0378 20.7994 68.9038 18.0372 64.3541 16.1526C59.8044 14.2681 54.928 13.2981 50.0035 13.2981C40.0579 13.2981 30.5196 17.249 23.487 24.2816C16.4544 31.3142 12.5035 40.8525 12.5035 50.7981C12.5035 60.7437 16.4544 70.282 23.487 77.3146C30.5196 84.3472 40.0579 88.2981 50.0035 88.2981ZM40.4493 43.6856C40.0649 43.2876 39.6052 42.9702 39.0968 42.7518C38.5885 42.5335 38.0417 42.4185 37.4885 42.4137C36.9352 42.4089 36.3866 42.5143 35.8745 42.7238C35.3624 42.9333 34.8972 43.2427 34.506 43.634C34.1148 44.0252 33.8054 44.4904 33.5959 45.0025C33.3864 45.5145 33.281 46.0632 33.2858 46.6164C33.2906 47.1697 33.4055 47.7164 33.6239 48.2248C33.8423 48.7331 34.1597 49.1929 34.5576 49.5773L47.0576 62.0773C47.839 62.8584 48.8986 63.2972 50.0035 63.2972C51.1083 63.2972 52.1679 62.8584 52.9493 62.0773L65.4493 49.5773C66.2083 48.7914 66.6283 47.7389 66.6188 46.6464C66.6093 45.5539 66.1711 44.5089 65.3986 43.7364C64.626 42.9638 63.581 42.5256 62.4885 42.5161C61.396 42.5066 60.3435 42.9266 59.5576 43.6856L50.0035 53.2398L40.4493 43.6856Z" fill="#4069CC"/>
</svg>
