<svg width="630" height="185" viewBox="0 0 630 185" fill="none" xmlns="http://www.w3.org/2000/svg">
<path d="M6 72.5707H122L110.085 166.571H18.1395L6 72.5707Z" fill="#A77762"/>
<rect y="63.5707" width="128" height="37" fill="#AA8271"/>
<circle cx="40.4523" cy="29.4149" r="17.0146" transform="rotate(-76.7753 40.4523 29.4149)" fill="#8EAF6E"/>
<path d="M15.5692 28.8631C12.2977 25.7045 13.5921 20.1966 17.928 18.8258L34.5063 13.5844C38.9445 12.1813 43.2208 16.1467 42.1559 20.678L38.0861 37.9961C37.0213 42.5273 31.4264 44.173 28.0777 40.9399L15.5692 28.8631Z" fill="#8EAF6E"/>
<circle cx="74.0558" cy="31.8226" r="8.40291" transform="rotate(30 74.0558 31.8226)" fill="#8EAF6E"/>
<path d="M77.6736 19.9438C79.6578 18.8335 82.1078 20.248 82.1383 22.5215L82.2519 30.9811C82.2831 33.3082 79.7677 34.7831 77.7522 33.6195L70.2556 29.2913C68.24 28.1277 68.2596 25.2118 70.2906 24.0753L77.6736 19.9438Z" fill="#8EAF6E"/>
<path d="M66.3161 67.5707C65.1394 56.0001 63.6406 47.6122 60.559 41.8564M40.9602 31.5707C51.0799 31.9363 56.9219 35.063 60.559 41.8564M60.559 41.8564C70.1466 41.6391 73.9602 31.5707 73.9602 31.5707" stroke="#A59071" stroke-width="6"/>
<path d="M128 63.3286C128 65.6714 99.3462 67.5707 64 67.5707C28.6538 67.5707 0 65.6714 0 63.3286C0 60.9858 2.35583 58.3151 43.9754 56.7725C79.7055 55.4482 128 60.9858 128 63.3286Z" fill="#493B26"/>
<path d="M188.145 77.4257C181.685 77.4257 176.017 76.0323 171.14 73.2457C166.327 70.459 162.622 66.469 160.025 61.2757C157.428 56.0823 156.13 50.0023 156.13 43.0357C156.13 36.069 157.428 30.0207 160.025 24.8907C162.622 19.6973 166.327 15.7073 171.14 12.9207C176.017 10.134 181.685 8.74067 188.145 8.74067C192.325 8.74067 196.252 9.37401 199.925 10.6407C203.598 11.844 206.86 13.6173 209.71 15.9607C210.533 16.594 211.103 17.259 211.42 17.9557C211.737 18.6523 211.895 19.5073 211.895 20.5207C211.895 21.914 211.515 23.0857 210.755 24.0357C209.995 24.9857 209.077 25.4607 208 25.4607C206.733 25.4607 205.435 25.0173 204.105 24.1307C201.382 22.104 198.848 20.7107 196.505 19.9507C194.162 19.1273 191.565 18.7157 188.715 18.7157C182.128 18.7157 177.125 20.774 173.705 24.8907C170.348 29.0073 168.67 35.0557 168.67 43.0357C168.67 51.079 170.348 57.159 173.705 61.2757C177.125 65.3923 182.128 67.4507 188.715 67.4507C191.438 67.4507 193.94 67.039 196.22 66.2157C198.563 65.3923 201.192 63.999 204.105 62.0357C204.738 61.6557 205.372 61.339 206.005 61.0857C206.638 60.8323 207.303 60.7057 208 60.7057C209.077 60.7057 209.995 61.1807 210.755 62.1307C211.515 63.0807 211.895 64.2523 211.895 65.6457C211.895 66.5957 211.737 67.4507 211.42 68.2107C211.103 68.9073 210.533 69.5723 209.71 70.2057C206.86 72.549 203.598 74.354 199.925 75.6207C196.252 76.824 192.325 77.4257 188.145 77.4257ZM257.302 29.1657C259.139 29.1657 260.595 29.6723 261.672 30.6857C262.749 31.699 263.287 33.0607 263.287 34.7707V71.6307C263.287 73.2773 262.717 74.6073 261.577 75.6207C260.5 76.634 259.075 77.1407 257.302 77.1407C255.592 77.1407 254.23 76.6657 253.217 75.7157C252.204 74.7657 251.697 73.4673 251.697 71.8207V69.4457C250.24 71.979 248.277 73.9423 245.807 75.3357C243.337 76.6657 240.55 77.3307 237.447 77.3307C226.047 77.3307 220.347 70.934 220.347 58.1407V34.7707C220.347 33.0607 220.885 31.699 221.962 30.6857C223.039 29.6723 224.464 29.1657 226.237 29.1657C228.074 29.1657 229.53 29.6723 230.607 30.6857C231.684 31.699 232.222 33.0607 232.222 34.7707V58.2357C232.222 61.529 232.887 63.9673 234.217 65.5507C235.547 67.134 237.637 67.9257 240.487 67.9257C243.78 67.9257 246.409 66.849 248.372 64.6957C250.399 62.479 251.412 59.5657 251.412 55.9557V34.7707C251.412 33.0607 251.95 31.699 253.027 30.6857C254.104 29.6723 255.529 29.1657 257.302 29.1657ZM281.537 77.1407C279.827 77.1407 278.402 76.6657 277.262 75.7157C276.185 74.7023 275.647 73.2773 275.647 71.4407V14.7257C275.647 12.889 276.185 11.4957 277.262 10.5457C278.402 9.59567 279.827 9.12068 281.537 9.12068C283.247 9.12068 284.672 9.59567 285.812 10.5457C286.952 11.4957 287.522 12.889 287.522 14.7257V71.4407C287.522 73.2773 286.952 74.7023 285.812 75.7157C284.672 76.6657 283.247 77.1407 281.537 77.1407ZM323.898 68.3057C327.064 68.4957 328.648 69.9207 328.648 72.5807C328.648 74.1007 328.014 75.2723 326.748 76.0957C325.544 76.8557 323.803 77.1723 321.523 77.0457L318.958 76.8557C308.318 76.0957 302.998 70.3957 302.998 59.7557V39.0457H298.248C296.538 39.0457 295.208 38.6657 294.258 37.9057C293.371 37.1457 292.928 36.0373 292.928 34.5807C292.928 33.124 293.371 32.0157 294.258 31.2557C295.208 30.4957 296.538 30.1157 298.248 30.1157H302.998V21.3757C302.998 19.6657 303.536 18.304 304.613 17.2907C305.689 16.2773 307.146 15.7707 308.983 15.7707C310.756 15.7707 312.181 16.2773 313.258 17.2907C314.334 18.304 314.873 19.6657 314.873 21.3757V30.1157H322.948C324.658 30.1157 325.956 30.4957 326.843 31.2557C327.793 32.0157 328.268 33.124 328.268 34.5807C328.268 36.0373 327.793 37.1457 326.843 37.9057C325.956 38.6657 324.658 39.0457 322.948 39.0457H314.873V60.6107C314.873 65.2973 317.026 67.799 321.333 68.1157L323.898 68.3057ZM340.726 77.1407C339.016 77.1407 337.591 76.6657 336.451 75.7157C335.374 74.7023 334.836 73.2773 334.836 71.4407V34.7707C334.836 32.934 335.374 31.5407 336.451 30.5907C337.591 29.6407 339.016 29.1657 340.726 29.1657C342.436 29.1657 343.861 29.6407 345.001 30.5907C346.141 31.5407 346.711 32.934 346.711 34.7707V71.4407C346.711 73.2773 346.141 74.7023 345.001 75.7157C343.861 76.6657 342.436 77.1407 340.726 77.1407ZM340.726 20.7107C338.573 20.7107 336.863 20.1407 335.596 19.0007C334.329 17.7973 333.696 16.2457 333.696 14.3457C333.696 12.4457 334.329 10.9257 335.596 9.78568C336.863 8.64568 338.573 8.07568 340.726 8.07568C342.816 8.07568 344.494 8.64568 345.761 9.78568C347.091 10.9257 347.756 12.4457 347.756 14.3457C347.756 16.2457 347.123 17.7973 345.856 19.0007C344.589 20.1407 342.879 20.7107 340.726 20.7107ZM391.352 32.5857C391.859 31.4457 392.524 30.5907 393.347 30.0207C394.234 29.4507 395.184 29.1657 396.197 29.1657C397.654 29.1657 398.952 29.6723 400.092 30.6857C401.296 31.6357 401.897 32.839 401.897 34.2957C401.897 35.0557 401.707 35.8157 401.327 36.5757L383.752 73.3407C383.182 74.544 382.359 75.4623 381.282 76.0957C380.269 76.729 379.129 77.0457 377.862 77.0457C376.659 77.0457 375.487 76.729 374.347 76.0957C373.271 75.4623 372.447 74.544 371.877 73.3407L354.207 36.5757C353.891 35.9423 353.732 35.214 353.732 34.3907C353.732 32.934 354.334 31.699 355.537 30.6857C356.804 29.6723 358.229 29.1657 359.812 29.1657C362.092 29.1657 363.771 30.274 364.847 32.4907L378.147 61.8457L391.352 32.5857ZM428.453 28.9757C434.913 28.9757 439.694 30.5907 442.798 33.8207C445.964 36.9873 447.548 41.8323 447.548 48.3557V71.5357C447.548 73.2457 447.041 74.6073 446.028 75.6207C445.014 76.5707 443.621 77.0457 441.848 77.0457C440.201 77.0457 438.839 76.539 437.763 75.5257C436.749 74.5123 436.243 73.1823 436.243 71.5357V69.4457C435.166 71.9157 433.456 73.8473 431.113 75.2407C428.833 76.634 426.173 77.3307 423.133 77.3307C420.029 77.3307 417.211 76.6973 414.678 75.4307C412.144 74.164 410.149 72.4223 408.693 70.2057C407.236 67.989 406.508 65.519 406.508 62.7957C406.508 59.3757 407.363 56.684 409.073 54.7207C410.846 52.7573 413.696 51.3323 417.623 50.4457C421.549 49.559 426.964 49.1157 433.868 49.1157H436.243V46.9307C436.243 43.8273 435.578 41.579 434.248 40.1857C432.918 38.729 430.764 38.0007 427.788 38.0007C425.951 38.0007 424.083 38.2857 422.183 38.8557C420.283 39.3623 418.034 40.1223 415.438 41.1357C413.791 41.959 412.588 42.3707 411.828 42.3707C410.688 42.3707 409.738 41.959 408.978 41.1357C408.281 40.3123 407.933 39.2357 407.933 37.9057C407.933 36.829 408.186 35.9107 408.693 35.1507C409.263 34.3273 410.181 33.5673 411.448 32.8707C413.664 31.6673 416.293 30.7173 419.333 30.0207C422.436 29.324 425.476 28.9757 428.453 28.9757ZM425.508 68.7807C428.674 68.7807 431.239 67.7357 433.203 65.6457C435.229 63.4923 436.243 60.7373 436.243 57.3807V55.3857H434.533C430.289 55.3857 426.996 55.5757 424.653 55.9557C422.309 56.3357 420.631 57.0007 419.618 57.9507C418.604 58.9007 418.098 60.199 418.098 61.8457C418.098 63.8723 418.794 65.5507 420.188 66.8807C421.644 68.1473 423.418 68.7807 425.508 68.7807ZM483.746 68.3057C486.913 68.4957 488.496 69.9207 488.496 72.5807C488.496 74.1007 487.863 75.2723 486.596 76.0957C485.393 76.8557 483.651 77.1723 481.371 77.0457L478.806 76.8557C468.166 76.0957 462.846 70.3957 462.846 59.7557V39.0457H458.096C456.386 39.0457 455.056 38.6657 454.106 37.9057C453.22 37.1457 452.776 36.0373 452.776 34.5807C452.776 33.124 453.22 32.0157 454.106 31.2557C455.056 30.4957 456.386 30.1157 458.096 30.1157H462.846V21.3757C462.846 19.6657 463.385 18.304 464.461 17.2907C465.538 16.2773 466.995 15.7707 468.831 15.7707C470.605 15.7707 472.03 16.2773 473.106 17.2907C474.183 18.304 474.721 19.6657 474.721 21.3757V30.1157H482.796C484.506 30.1157 485.805 30.4957 486.691 31.2557C487.641 32.0157 488.116 33.124 488.116 34.5807C488.116 36.0373 487.641 37.1457 486.691 37.9057C485.805 38.6657 484.506 39.0457 482.796 39.0457H474.721V60.6107C474.721 65.2973 476.875 67.799 481.181 68.1157L483.746 68.3057ZM531.45 63.8407C532.526 63.8407 533.381 64.2523 534.015 65.0757C534.711 65.899 535.06 67.0073 535.06 68.4007C535.06 70.364 533.888 72.0107 531.545 73.3407C529.391 74.544 526.953 75.5257 524.23 76.2857C521.506 76.9823 518.91 77.3307 516.44 77.3307C508.966 77.3307 503.045 75.1773 498.675 70.8707C494.305 66.564 492.12 60.674 492.12 53.2007C492.12 48.4507 493.07 44.239 494.97 40.5657C496.87 36.8923 499.53 34.0423 502.95 32.0157C506.433 29.989 510.36 28.9757 514.73 28.9757C518.91 28.9757 522.551 29.894 525.655 31.7307C528.758 33.5673 531.165 36.164 532.875 39.5207C534.585 42.8773 535.44 46.8357 535.44 51.3957C535.44 54.119 534.236 55.4807 531.83 55.4807H503.805C504.185 59.8507 505.42 63.0807 507.51 65.1707C509.6 67.1973 512.64 68.2107 516.63 68.2107C518.656 68.2107 520.43 67.9573 521.95 67.4507C523.533 66.944 525.306 66.2473 527.27 65.3607C529.17 64.3473 530.563 63.8407 531.45 63.8407ZM515.015 37.3357C511.785 37.3357 509.188 38.349 507.225 40.3757C505.325 42.4023 504.185 45.3157 503.805 49.1157H525.275C525.148 45.2523 524.198 42.339 522.425 40.3757C520.651 38.349 518.181 37.3357 515.015 37.3357ZM165.725 167.141C163.065 167.141 160.943 166.381 159.36 164.861C157.84 163.277 157.08 161.156 157.08 158.496V107.671C157.08 105.074 157.84 103.016 159.36 101.496C160.943 99.9123 163.065 99.1207 165.725 99.1207C168.448 99.1207 170.602 99.9123 172.185 101.496C173.768 103.016 174.56 105.074 174.56 107.671V158.496C174.56 161.156 173.768 163.277 172.185 164.861C170.602 166.381 168.448 167.141 165.725 167.141ZM216.98 118.691C222.553 118.691 226.701 120.369 229.425 123.726C232.148 127.019 233.51 132.054 233.51 138.831V159.351C233.51 161.757 232.75 163.657 231.23 165.051C229.71 166.444 227.651 167.141 225.055 167.141C222.458 167.141 220.4 166.444 218.88 165.051C217.36 163.657 216.6 161.757 216.6 159.351V139.591C216.6 136.804 216.093 134.777 215.08 133.511C214.13 132.244 212.673 131.611 210.71 131.611C208.176 131.611 206.15 132.434 204.63 134.081C203.173 135.664 202.445 137.817 202.445 140.541V159.351C202.445 161.757 201.685 163.657 200.165 165.051C198.645 166.444 196.586 167.141 193.99 167.141C191.393 167.141 189.335 166.444 187.815 165.051C186.295 163.657 185.535 161.757 185.535 159.351V126.481C185.535 124.264 186.326 122.459 187.91 121.066C189.493 119.609 191.551 118.881 194.085 118.881C196.491 118.881 198.391 119.546 199.785 120.876C201.241 122.206 201.97 123.947 201.97 126.101C203.616 123.694 205.738 121.857 208.335 120.591C210.931 119.324 213.813 118.691 216.98 118.691ZM265.569 167.331C257.969 167.331 251.953 165.177 247.519 160.871C243.086 156.564 240.869 150.706 240.869 143.296C240.869 138.419 241.946 134.112 244.099 130.376C246.253 126.639 249.261 123.757 253.124 121.731C257.051 119.704 261.516 118.691 266.519 118.691C269.179 118.691 271.839 119.039 274.499 119.736C277.159 120.432 279.503 121.414 281.529 122.681C283.493 123.884 284.474 125.721 284.474 128.191C284.474 130.154 283.999 131.769 283.049 133.036C282.163 134.239 280.991 134.841 279.534 134.841C278.584 134.841 277.666 134.714 276.779 134.461C275.893 134.144 274.911 133.701 273.834 133.131C272.568 132.561 271.491 132.149 270.604 131.896C269.718 131.579 268.736 131.421 267.659 131.421C261.389 131.421 258.254 135.252 258.254 142.916C258.254 146.716 259.046 149.629 260.629 151.656C262.276 153.619 264.619 154.601 267.659 154.601C268.736 154.601 269.718 154.474 270.604 154.221C271.554 153.904 272.599 153.461 273.739 152.891C275.006 152.321 276.019 151.909 276.779 151.656C277.603 151.339 278.489 151.181 279.439 151.181C280.896 151.181 282.068 151.814 282.954 153.081C283.904 154.284 284.379 155.867 284.379 157.831C284.379 159.034 284.126 160.142 283.619 161.156C283.113 162.106 282.416 162.834 281.529 163.341C277.159 166.001 271.839 167.331 265.569 167.331ZM299.009 167.141C296.603 167.141 294.576 166.507 292.929 165.241C291.346 163.911 290.554 161.947 290.554 159.351V107.006C290.554 104.409 291.346 102.446 292.929 101.116C294.576 99.7857 296.603 99.1207 299.009 99.1207C301.416 99.1207 303.411 99.7857 304.994 101.116C306.641 102.446 307.464 104.409 307.464 107.006V159.351C307.464 161.947 306.641 163.911 304.994 165.241C303.411 166.507 301.416 167.141 299.009 167.141ZM355.938 118.881C358.535 118.881 360.593 119.577 362.113 120.971C363.633 122.364 364.393 124.264 364.393 126.671V159.541C364.393 161.757 363.601 163.594 362.018 165.051C360.435 166.444 358.376 167.141 355.843 167.141C353.563 167.141 351.695 166.539 350.238 165.336C348.781 164.069 348.021 162.391 347.958 160.301C346.501 162.581 344.633 164.322 342.353 165.526C340.136 166.729 337.571 167.331 334.658 167.331C328.641 167.331 324.176 165.684 321.263 162.391C318.35 159.034 316.893 153.967 316.893 147.191V126.671C316.893 124.264 317.653 122.364 319.173 120.971C320.693 119.577 322.751 118.881 325.348 118.881C327.945 118.881 330.003 119.577 331.523 120.971C333.043 122.364 333.803 124.264 333.803 126.671V147.571C333.803 152.131 335.766 154.411 339.693 154.411C341.973 154.411 343.841 153.587 345.298 151.941C346.755 150.294 347.483 148.141 347.483 145.481V126.671C347.483 124.264 348.243 122.364 349.763 120.971C351.283 119.577 353.341 118.881 355.938 118.881ZM392.666 167.331C388.423 167.331 384.844 167.014 381.931 166.381C379.018 165.747 376.453 164.734 374.236 163.341C373.349 162.897 372.653 162.137 372.146 161.061C371.639 159.984 371.386 158.781 371.386 157.451C371.386 155.741 371.829 154.347 372.716 153.271C373.666 152.131 374.838 151.561 376.231 151.561C377.181 151.561 378.068 151.687 378.891 151.941C379.714 152.131 380.728 152.479 381.931 152.986C383.958 153.682 385.731 154.221 387.251 154.601C388.834 154.981 390.829 155.171 393.236 155.171C394.946 155.171 396.276 154.949 397.226 154.506C398.239 153.999 398.746 153.302 398.746 152.416C398.746 151.719 398.493 151.181 397.986 150.801C397.543 150.421 396.656 150.072 395.326 149.756C393.996 149.376 391.748 148.869 388.581 148.236C382.944 147.159 378.859 145.544 376.326 143.391C373.856 141.174 372.621 138.071 372.621 134.081C372.621 131.167 373.508 128.539 375.281 126.196C377.118 123.852 379.619 122.016 382.786 120.686C385.953 119.356 389.499 118.691 393.426 118.691C396.276 118.691 399.031 119.039 401.691 119.736C404.414 120.432 406.821 121.414 408.911 122.681C410.874 123.821 411.856 125.657 411.856 128.191C411.856 129.964 411.381 131.452 410.431 132.656C409.481 133.859 408.309 134.461 406.916 134.461C405.269 134.461 403.306 133.922 401.026 132.846C399.506 132.149 398.144 131.642 396.941 131.326C395.801 130.946 394.439 130.756 392.856 130.756C391.273 130.756 390.038 131.009 389.151 131.516C388.264 131.959 387.821 132.624 387.821 133.511C387.821 134.524 388.423 135.316 389.626 135.886C390.893 136.456 393.363 137.089 397.036 137.786C403.179 138.862 407.518 140.509 410.051 142.726C412.584 144.879 413.851 148.014 413.851 152.131C413.851 156.754 411.919 160.459 408.056 163.246C404.256 165.969 399.126 167.331 392.666 167.331ZM429.263 167.141C426.856 167.141 424.83 166.507 423.183 165.241C421.6 163.911 420.808 161.947 420.808 159.351V126.671C420.808 124.074 421.6 122.142 423.183 120.876C424.83 119.546 426.856 118.881 429.263 118.881C431.67 118.881 433.665 119.546 435.248 120.876C436.895 122.142 437.718 124.074 437.718 126.671V159.351C437.718 161.947 436.895 163.911 435.248 165.241C433.665 166.507 431.67 167.141 429.263 167.141ZM429.263 112.231C426.413 112.231 424.133 111.502 422.423 110.046C420.776 108.526 419.953 106.531 419.953 104.061C419.953 101.591 420.776 99.6273 422.423 98.1707C424.133 96.714 426.413 95.9857 429.263 95.9857C432.05 95.9857 434.298 96.714 436.008 98.1707C437.718 99.6273 438.573 101.591 438.573 104.061C438.573 106.531 437.718 108.526 436.008 110.046C434.361 111.502 432.113 112.231 429.263 112.231ZM478.782 123.631C479.479 122.047 480.429 120.876 481.632 120.116C482.899 119.356 484.26 118.976 485.717 118.976C487.807 118.976 489.644 119.672 491.227 121.066C492.874 122.459 493.697 124.137 493.697 126.101C493.697 127.177 493.444 128.222 492.937 129.236L476.312 162.296C475.552 163.879 474.444 165.114 472.987 166.001C471.594 166.824 470.042 167.236 468.332 167.236C466.622 167.236 465.039 166.824 463.582 166.001C462.125 165.114 461.017 163.879 460.257 162.296L443.632 129.236C443.125 128.096 442.872 127.082 442.872 126.196C442.872 124.169 443.727 122.459 445.437 121.066C447.21 119.609 449.237 118.881 451.517 118.881C453.037 118.881 454.43 119.292 455.697 120.116C457.027 120.876 458.04 122.047 458.737 123.631L468.807 145.386L478.782 123.631ZM507.378 167.141C504.972 167.141 502.945 166.507 501.298 165.241C499.715 163.911 498.923 161.947 498.923 159.351V126.671C498.923 124.074 499.715 122.142 501.298 120.876C502.945 119.546 504.972 118.881 507.378 118.881C509.785 118.881 511.78 119.546 513.363 120.876C515.01 122.142 515.833 124.074 515.833 126.671V159.351C515.833 161.947 515.01 163.911 513.363 165.241C511.78 166.507 509.785 167.141 507.378 167.141ZM507.378 112.231C504.528 112.231 502.248 111.502 500.538 110.046C498.892 108.526 498.068 106.531 498.068 104.061C498.068 101.591 498.892 99.6273 500.538 98.1707C502.248 96.714 504.528 95.9857 507.378 95.9857C510.165 95.9857 512.413 96.714 514.123 98.1707C515.833 99.6273 516.688 101.591 516.688 104.061C516.688 106.531 515.833 108.526 514.123 110.046C512.477 111.502 510.228 112.231 507.378 112.231ZM553.287 155.076C557.53 155.329 559.652 157.229 559.652 160.776C559.652 162.992 558.797 164.639 557.087 165.716C555.377 166.792 552.939 167.236 549.772 167.046L547.112 166.856C541.412 166.412 537.074 164.702 534.097 161.726C531.184 158.686 529.727 154.474 529.727 149.091V132.276H526.972C521.905 132.276 519.372 130.186 519.372 126.006C519.372 121.889 521.905 119.831 526.972 119.831H529.727V113.656C529.727 111.249 530.487 109.349 532.007 107.956C533.527 106.499 535.585 105.771 538.182 105.771C540.779 105.771 542.837 106.499 544.357 107.956C545.877 109.349 546.637 111.249 546.637 113.656V119.831H551.862C556.929 119.831 559.462 121.889 559.462 126.006C559.462 130.186 556.929 132.276 551.862 132.276H546.637V150.516C546.637 151.719 546.985 152.732 547.682 153.556C548.442 154.379 549.392 154.822 550.532 154.886L553.287 155.076ZM596.419 123.631C597.115 122.047 598.065 120.876 599.269 120.116C600.472 119.356 601.802 118.976 603.259 118.976C605.349 118.976 607.217 119.672 608.864 121.066C610.51 122.459 611.334 124.137 611.334 126.101C611.334 127.177 611.08 128.222 610.574 129.236L585.399 179.681C584.639 181.264 583.625 182.436 582.359 183.196C581.155 183.956 579.825 184.336 578.369 184.336C576.279 184.336 574.41 183.639 572.764 182.246C571.18 180.916 570.389 179.269 570.389 177.306C570.389 176.229 570.674 175.121 571.244 173.981L577.419 161.536L561.269 129.236C560.762 128.096 560.509 127.082 560.509 126.196C560.509 124.169 561.395 122.459 563.169 121.066C564.942 119.609 566.937 118.881 569.154 118.881C570.674 118.881 572.067 119.292 573.334 120.116C574.664 120.876 575.677 122.047 576.374 123.631L586.444 145.481L596.419 123.631Z" fill="#493B26"/>
</svg>
