<svg width="79" height="29" viewBox="0 0 79 29" fill="none" xmlns="http://www.w3.org/2000/svg">
<path d="M27.7339 20.3095H28.7119C31.1035 20.3095 32.2993 21.1579 32.2993 22.8549C32.29 23.3501 32.164 23.836 31.9314 24.273C31.6989 24.7099 31.3665 25.0855 30.9614 25.3689C30.0746 26.0775 28.8553 26.4318 27.3035 26.4318C25.9265 26.4318 24.8897 26.1651 24.1738 25.6474C23.849 25.4206 23.5845 25.1176 23.4031 24.7649C23.2217 24.4122 23.1291 24.0204 23.1332 23.6236C23.1322 23.2595 23.2013 22.8986 23.3366 22.5607C23.4555 22.2556 23.6352 21.978 23.8648 21.7449C24.0279 21.5796 24.2003 21.4238 24.3812 21.2782C24.4904 21.1889 24.6069 21.1089 24.7293 21.039C24.5161 20.882 24.3441 20.6753 24.2282 20.4369C24.1124 20.1984 24.0561 19.9353 24.0643 19.6702C24.0645 19.3133 24.1577 18.9627 24.3348 18.6531C24.5118 18.3435 24.7665 18.0857 25.0736 17.9052C24.651 17.641 24.3076 17.2671 24.0796 16.8231C23.8516 16.3792 23.7477 15.8817 23.7787 15.3833C23.7632 14.8981 23.8543 14.4154 24.0456 13.9694C24.237 13.5234 24.5238 13.1251 24.8858 12.8026C25.7307 12.0993 26.8095 11.7421 27.906 11.8025C28.1981 11.8014 28.4898 11.8236 28.7784 11.8692C28.9785 11.8948 29.1753 11.9422 29.3652 12.0104L29.5374 12.0731C29.8652 11.5846 30.2329 11.1241 30.6367 10.6965C30.7472 10.5644 30.8832 10.4561 31.0364 10.3779C31.1897 10.2997 31.3571 10.2533 31.5286 10.2415C31.6289 10.2373 31.7289 10.2532 31.823 10.2882C31.917 10.3232 32.0031 10.3767 32.0763 10.4454C32.1409 10.5013 32.1925 10.5706 32.2277 10.6485C32.2628 10.7264 32.2806 10.811 32.2798 10.8965C32.285 10.9978 32.2689 11.099 32.2325 11.1936C32.1961 11.2882 32.1402 11.3741 32.0685 11.4456C31.8511 11.6389 31.6167 11.8122 31.3682 11.9633C31.0674 12.1518 30.7822 12.3642 30.5154 12.5987C30.8549 12.876 31.1253 13.2288 31.3053 13.6291C31.4852 14.0293 31.5697 14.4661 31.5521 14.9048C31.5682 15.3907 31.4773 15.8742 31.286 16.3209C31.0946 16.7676 30.8075 17.1666 30.445 17.4895C29.6047 18.1896 28.5314 18.5455 27.4404 18.4857C27.1932 18.4856 26.9463 18.4699 26.7011 18.4386C26.52 18.4189 26.3408 18.3848 26.1651 18.3367L25.9812 18.2974C25.8509 18.4115 25.7479 18.5537 25.6802 18.7133C25.6124 18.8729 25.5816 19.0458 25.59 19.2191C25.5845 19.384 25.6253 19.547 25.7076 19.6898C25.7898 19.8326 25.9104 19.9495 26.0556 20.0271C26.5781 20.2571 27.1492 20.3541 27.7182 20.3095H27.7339ZM28.305 21.6469H27.3857C27.0939 21.6495 26.8024 21.6312 26.5133 21.592C26.2472 21.5528 26.0556 21.5214 25.9499 21.4939L25.7739 21.4272C25.6857 21.4963 25.6021 21.5709 25.5235 21.6508C25.3673 21.8355 25.2358 22.0399 25.1323 22.2587C24.9766 22.5508 24.8947 22.8767 24.8936 23.2079C24.8936 24.4708 25.7856 25.0983 27.5852 25.0905C28.3422 25.1353 29.094 24.939 29.733 24.5296C29.968 24.3728 30.1604 24.1599 30.2929 23.91C30.4254 23.6601 30.4938 23.3811 30.4919 23.098C30.507 22.8874 30.4694 22.6764 30.3827 22.4839C30.2959 22.2915 30.1627 22.1238 29.9951 21.9959C29.4858 21.7094 28.9026 21.5823 28.3207 21.6312L28.305 21.6469ZM26.1573 13.5949C25.9679 13.7967 25.8214 14.0349 25.7266 14.2951C25.6318 14.5553 25.5906 14.8322 25.6057 15.1088C25.5927 15.3922 25.6366 15.6753 25.7347 15.9414C25.8328 16.2075 25.9832 16.4512 26.1768 16.658C26.3791 16.8563 26.6201 17.0106 26.8847 17.1112C27.1493 17.2117 27.4317 17.2564 27.7143 17.2424C27.9878 17.2564 28.2612 17.2147 28.5181 17.1196C28.775 17.0245 29.0099 16.8782 29.2087 16.6894C29.3978 16.4866 29.5441 16.2477 29.6389 15.9868C29.7337 15.726 29.775 15.4487 29.7603 15.1715C29.7733 14.8881 29.7294 14.605 29.6313 14.3389C29.5332 14.0728 29.3828 13.8292 29.1892 13.6223C28.9859 13.4243 28.7441 13.2702 28.479 13.1697C28.2139 13.0692 27.9309 13.0243 27.6478 13.0379C27.3746 13.0236 27.1013 13.0656 26.8449 13.1614C26.5885 13.2572 26.3545 13.4047 26.1573 13.5949Z" fill="white"/>
<path d="M33.6732 18.3171V13.3675L32.613 13.1832C32.257 13.1204 32.0771 12.9478 32.0771 12.6694C32.0655 12.5285 32.1074 12.3884 32.1945 12.2772C32.3188 12.1607 32.4759 12.0854 32.6443 12.0614C33.175 11.9417 33.7162 11.8747 34.2601 11.8614C34.5804 11.8265 34.902 11.9148 35.1598 12.1085C35.3537 12.3682 35.4418 12.6921 35.4063 13.0145V17.8426C35.4063 19.6336 36.177 20.5266 37.7184 20.5213C38.1669 20.5245 38.6097 20.4196 39.0094 20.2154C39.3342 20.0698 39.6258 19.8589 39.8661 19.5957L40.1165 19.2977V13.3675L38.9233 13.1832C38.5673 13.1204 38.3834 12.9478 38.3795 12.6694C38.368 12.5285 38.4099 12.3884 38.4969 12.2772C38.6249 12.1615 38.7841 12.0865 38.9546 12.0614C39.5298 11.939 40.1154 11.872 40.7033 11.8614C41.0237 11.8265 41.3453 11.9148 41.6031 12.1085C41.8043 12.3664 41.8969 12.693 41.8613 13.0184V20.3527L42.8785 20.4664C43.2462 20.5213 43.4301 20.6978 43.434 20.992C43.4379 21.2861 43.2462 21.5019 42.8589 21.6313C42.3564 21.7403 41.8434 21.7929 41.3293 21.7882C41.185 21.8101 41.0376 21.7978 40.899 21.7521C40.7604 21.7064 40.6344 21.6288 40.5313 21.5253C40.4281 21.4219 40.3506 21.2956 40.3051 21.1566C40.2595 21.0177 40.2472 20.8699 40.2691 20.7253V20.3527L40.2339 20.3331L40.1165 20.4978C40.0201 20.6369 39.9129 20.768 39.7957 20.89C39.6231 21.071 39.427 21.228 39.2128 21.3567C38.9336 21.5159 38.6351 21.6384 38.3248 21.7215C37.9433 21.832 37.5482 21.8874 37.1511 21.8862C36.6853 21.917 36.2182 21.8522 35.7783 21.6958C35.3383 21.5393 34.9349 21.2945 34.5926 20.9763C33.9979 20.3749 33.7006 19.4964 33.7006 18.3407" fill="white"/>
<path d="M44.7914 18.3172V13.3675L43.7312 13.1832C43.3752 13.1204 43.1953 12.9479 43.1953 12.6694C43.1837 12.5285 43.2256 12.3884 43.3126 12.2772C43.4374 12.1614 43.5942 12.0861 43.7625 12.0615C44.2932 11.9417 44.8344 11.8747 45.3782 11.8615C45.6986 11.8257 46.0205 11.9141 46.278 12.1086C46.4718 12.3683 46.5599 12.6921 46.5245 13.0146V17.8426C46.5245 19.635 47.3069 20.5292 48.8365 20.5214C49.2851 20.5245 49.7279 20.4196 50.1276 20.2155C50.4518 20.0688 50.7432 19.858 50.9843 19.5958L51.2347 19.2977V13.3675L50.0415 13.1832C49.6816 13.1204 49.5016 12.9479 49.4938 12.6694C49.4813 12.5278 49.5248 12.3869 49.6151 12.2772C49.7425 12.1608 49.902 12.0856 50.0728 12.0615C50.648 11.9391 51.2336 11.8721 51.8215 11.8615C52.1418 11.8265 52.4634 11.9149 52.7213 12.1086C52.9121 12.3666 52.9988 12.6874 52.9639 13.0067V20.3527L53.9849 20.4665C54.3527 20.5214 54.5365 20.6979 54.5365 20.992C54.5365 21.2862 54.3527 21.5019 53.9654 21.6313C53.4629 21.7403 52.9498 21.793 52.4357 21.7882C52.2915 21.8102 52.1441 21.7978 52.0055 21.7521C51.8668 21.7065 51.7409 21.6288 51.6377 21.5254C51.5345 21.4219 51.4571 21.2956 51.4115 21.1567C51.366 21.0177 51.3536 20.87 51.3755 20.7253V20.3527L51.3403 20.3331L51.2229 20.4979C51.1247 20.6366 51.0162 20.7677 50.8982 20.8901C50.7287 21.0728 50.5336 21.23 50.3192 21.3568C50.0396 21.5152 49.7413 21.6377 49.4312 21.7215C49.0497 21.8317 48.6546 21.8871 48.2576 21.8863C47.7924 21.917 47.3258 21.8521 46.8866 21.6957C46.4473 21.5392 46.0445 21.2944 45.7029 20.9764C45.1083 20.375 44.811 19.4964 44.811 18.3407" fill="white"/>
<path d="M56.5629 19.2467L56.9033 20.3527C57.4599 20.619 58.0758 20.7365 58.6911 20.6939C60.0082 20.6939 60.6602 20.2076 60.6472 19.2349C60.6475 19.0335 60.5989 18.835 60.5055 18.6566C60.4121 18.4782 60.2768 18.3254 60.1112 18.2112C59.7151 17.9184 59.2772 17.687 58.8124 17.5249L57.2866 16.9719C56.7845 16.7896 56.3355 16.485 55.98 16.0855C55.611 15.6668 55.4163 15.1221 55.4362 14.5637C55.4305 14.1742 55.5185 13.789 55.6929 13.4408C55.8672 13.0926 56.1227 12.7916 56.4377 12.5635C57.1054 12.0405 58.0652 11.7791 59.317 11.7791C60.5454 11.7791 61.3357 11.9516 61.6839 12.2889C61.8877 12.5856 61.9741 12.9477 61.9264 13.3047V13.4381C61.9264 13.7519 61.9264 14.0421 61.9069 14.3049C61.9069 14.6735 61.7191 14.854 61.3787 14.854C61.1023 14.854 60.9106 14.6735 60.8036 14.3127L60.5415 13.293C60.0445 13.0952 59.5108 13.0069 58.9767 13.0341C57.7535 13.0341 57.138 13.442 57.1302 14.2578C57.1329 14.4507 57.1851 14.6397 57.2817 14.8066C57.3783 14.9735 57.5161 15.1127 57.6818 15.2109C58.0855 15.482 58.5219 15.7008 58.9806 15.8619L60.5141 16.4189C61.0263 16.605 61.4781 16.9277 61.8208 17.3523C62.1794 17.8095 62.3651 18.3791 62.345 18.9604C62.3526 19.37 62.2625 19.7756 62.0822 20.1433C61.9018 20.511 61.6365 20.8302 61.3083 21.0744C60.6198 21.6234 59.6222 21.8941 58.3155 21.8941C57.0089 21.8941 56.1404 21.698 55.7766 21.3058C55.5639 21.0188 55.4712 20.66 55.5184 20.3056V20.1409C55.5184 19.8115 55.5184 19.5173 55.5184 19.2545C55.5575 18.8898 55.714 18.7054 55.9995 18.7054C56.2851 18.7054 56.4377 18.8898 56.5316 19.2624" fill="white"/>
<path d="M64.2734 19.2975V13.2105H63.3227C62.8845 13.2105 62.6694 13.0261 62.6772 12.6614C62.6772 12.1986 62.9393 11.9672 63.4596 11.9672H64.2655L64.4768 10.4729C64.5145 10.1567 64.6272 9.85408 64.8054 9.59041C64.8767 9.50996 64.9649 9.4464 65.0637 9.40434C65.1625 9.36229 65.2694 9.34278 65.3766 9.34724C65.7678 9.34724 65.9869 9.5355 65.9986 9.91594V11.9672H68.0251C68.4633 11.9672 68.6745 12.1476 68.6706 12.5084C68.6706 12.983 68.4124 13.2183 67.8882 13.2105H65.9947V18.7484C65.956 19.2026 66.0512 19.6581 66.2686 20.0584C66.3798 20.1963 66.5235 20.3043 66.6867 20.3728C66.8499 20.4413 67.0275 20.468 67.2036 20.4506C67.4392 20.4506 67.674 20.4243 67.9038 20.3722C68.053 20.3359 68.2047 20.311 68.3576 20.2977C68.6354 20.2977 68.7723 20.4389 68.7723 20.7291C68.7734 20.8244 68.7524 20.9186 68.711 21.0043C68.6696 21.0901 68.6089 21.165 68.5337 21.2233C68.3373 21.3904 68.11 21.517 67.8647 21.5959C67.4441 21.7381 67.0017 21.8045 66.5581 21.792C65.0297 21.792 64.2642 20.9631 64.2616 19.3054" fill="white"/>
<path d="M68.7531 17.0582C68.7211 16.3598 68.8273 15.662 69.0657 15.005C69.304 14.348 69.6698 13.7448 70.1419 13.2303C70.602 12.751 71.1573 12.3738 71.7719 12.1231C72.3864 11.8725 73.0467 11.754 73.7098 11.7752C74.3209 11.7441 74.9316 11.8415 75.5029 12.061C76.0743 12.2805 76.5935 12.6173 77.0273 13.0499C77.8384 13.8996 78.244 15.0919 78.244 16.6268C78.2755 17.3215 78.1698 18.0156 77.9328 18.6692C77.6958 19.3228 77.3322 19.9229 76.863 20.4351C76.3997 20.9148 75.8408 21.2912 75.2226 21.5399C74.6045 21.7886 73.9411 21.9039 73.2756 21.8784C72.6666 21.9106 72.0576 21.8149 71.4877 21.5975C70.9177 21.38 70.3994 21.0455 69.9659 20.6155C69.1574 19.7684 68.7531 18.5826 68.7531 17.0582ZM71.3586 14.0774C70.837 14.7102 70.5762 15.6253 70.5762 16.8229C70.5762 18.0204 70.8553 18.9356 71.4134 19.5683C71.6731 19.8831 72.0006 20.1348 72.3712 20.3046C72.7418 20.4744 73.1459 20.5579 73.5533 20.5488C73.9513 20.5615 74.347 20.4838 74.7109 20.3214C75.0747 20.1591 75.3971 19.9164 75.6541 19.6115C76.1758 18.9839 76.4366 18.0766 76.4366 16.8896C76.4967 15.8935 76.1997 14.9087 75.5994 14.1127C75.3412 13.7956 75.0142 13.5418 74.6434 13.3705C74.2725 13.1993 73.8676 13.1151 73.4594 13.1244C73.0597 13.1104 72.6622 13.1891 72.2978 13.3544C71.9334 13.5197 71.612 13.7671 71.3586 14.0774Z" fill="white"/>
<path d="M18.3017 15.9992C18.2549 15.8646 18.1724 15.7452 18.063 15.6541C18.1737 15.5345 18.2424 15.3821 18.2588 15.2199C18.2752 15.0576 18.2383 14.8945 18.1538 14.7551C18.0692 14.6158 17.9417 14.508 17.7904 14.4479C17.6392 14.3879 17.4726 14.379 17.3158 14.4225L2.36757 18.6819C2.19328 18.7305 2.04252 18.8409 1.94326 18.9926C1.84401 19.1442 1.803 19.3268 1.82785 19.5065C1.8527 19.6861 1.94172 19.8506 2.07838 19.9695C2.21505 20.0883 2.39009 20.1534 2.571 20.1527C2.63997 20.1522 2.70849 20.1416 2.77443 20.1213L6.92912 18.9447L1.74945 20.639C1.58212 20.6955 1.44015 20.8096 1.34871 20.961C1.25728 21.1125 1.22229 21.2915 1.24995 21.4663C1.27761 21.6411 1.36613 21.8005 1.49981 21.9161C1.6335 22.0318 1.80371 22.0962 1.98027 22.098C2.05853 22.0979 2.13634 22.086 2.21108 22.0627L17.8205 16.964C18.0089 16.9021 18.1652 16.7679 18.2554 16.5908C18.3455 16.4138 18.3622 16.2081 18.3017 16.0188" fill="white"/>
<path d="M19.562 22.0392C19.5001 21.8558 19.3699 21.7036 19.1985 21.6143C19.0271 21.5251 18.8279 21.5059 18.6427 21.5607L16.448 22.2157L18.2945 21.4078C18.4568 21.3444 18.592 21.2263 18.6766 21.0737C18.7612 20.921 18.79 20.7436 18.758 20.5719C18.726 20.4003 18.6352 20.2453 18.5013 20.1336C18.3673 20.022 18.1987 19.9608 18.0245 19.9605L18.2749 19.8782C18.4632 19.8163 18.6193 19.6819 18.7088 19.5047C18.7983 19.3274 18.8139 19.1217 18.7522 18.9329C18.6905 18.7441 18.5564 18.5877 18.3796 18.4979C18.2028 18.4082 17.9977 18.3926 17.8094 18.4545L3.6318 23.1178C3.44745 23.1742 3.29218 23.3003 3.19875 23.4693C3.10532 23.6383 3.08105 23.8372 3.13105 24.0238C3.18174 24.2082 3.30052 24.3663 3.46327 24.4661C3.62602 24.5659 3.82055 24.5999 4.00737 24.5611L10.7519 23.0982L4.6959 25.7338C4.52391 25.813 4.38807 25.9543 4.31554 26.1296C4.243 26.3048 4.23913 26.501 4.30469 26.679C4.35239 26.8024 4.43044 26.9117 4.53159 26.9967L3.31883 27.4674C3.15682 27.5306 3.02185 27.6484 2.93717 27.8006C2.85249 27.9528 2.8234 28.1299 2.8549 28.3013C2.88641 28.4727 2.97654 28.6277 3.10978 28.7396C3.24302 28.8516 3.41102 28.9135 3.58486 28.9146C3.67724 28.9149 3.76884 28.8976 3.8548 28.8636L19.1473 22.9805C19.3233 22.9064 19.4643 22.7676 19.5414 22.5925C19.6185 22.4175 19.6259 22.2195 19.562 22.0392Z" fill="white"/>
<path d="M1.4446 17.4112L18.1416 13.8813C18.2425 13.8663 18.3393 13.8308 18.4259 13.7769C18.5126 13.723 18.5874 13.6518 18.6456 13.5679C18.7038 13.4839 18.7443 13.3889 18.7645 13.2886C18.7847 13.1884 18.7842 13.0851 18.7631 12.985C18.742 12.885 18.7006 12.7904 18.6416 12.7069C18.5826 12.6235 18.5072 12.5531 18.42 12.5C18.3328 12.4469 18.2357 12.4123 18.1347 12.3982C18.0337 12.3842 17.9308 12.391 17.8325 12.4184L14.4759 13.1204L16.7137 12.3831C16.8082 12.3552 16.8963 12.309 16.973 12.2471C17.0498 12.1851 17.1136 12.1086 17.1608 12.0219C17.208 11.9353 17.2377 11.8401 17.2483 11.7419C17.2588 11.6437 17.25 11.5444 17.2222 11.4496C17.1945 11.3548 17.1484 11.2665 17.0866 11.1896C17.0248 11.1126 16.9485 11.0487 16.862 11.0013C16.7756 10.954 16.6806 10.9242 16.5827 10.9136C16.4847 10.9031 16.3857 10.9119 16.2911 10.9397L0.556546 15.1638C0.39929 15.2077 0.2607 15.302 0.16196 15.4323C0.063221 15.5627 0.00976563 15.7218 0.00976562 15.8855C0.00976563 16.0491 0.063221 16.2083 0.16196 16.3386C0.2607 16.4689 0.39929 16.5632 0.556546 16.6071C0.550733 16.6967 0.558649 16.7867 0.580019 16.8738C0.623129 17.0308 0.71581 17.1695 0.844174 17.2692C0.972537 17.3689 1.12967 17.4242 1.29203 17.4268C1.34272 17.4326 1.39391 17.4326 1.4446 17.4268" fill="white"/>
<path d="M7.09811 11.3084C6.98858 11.3751 6.88295 11.4418 6.7695 11.5045C6.13573 11.8967 6.7695 12.8655 7.39152 12.4772C7.69276 12.2968 7.99399 12.1164 8.29132 11.932L8.71774 12.1752C9.31238 12.5086 9.80922 11.6771 9.39063 11.2535C10.13 10.7829 10.8577 10.3044 11.5697 9.79842C13.3028 8.5865 15.1297 7.21377 16.2916 5.4057C17.2931 3.83687 16.7533 2.21313 14.9967 1.59345C13.0837 0.918851 11.1159 2.77007 9.84835 4.35851C9.91876 2.9348 9.61362 1.56207 8.54952 0.503112C8.45603 0.416462 8.33635 0.363612 8.20947 0.352953C8.0826 0.342294 7.95581 0.374438 7.84925 0.444281C6.55433 1.50324 6.26092 3.22503 6.10052 4.80562C6.0288 5.618 6.0079 6.43408 6.03793 7.24907C4.9973 5.78222 3.49895 4.8723 1.81673 6.43328C1.73211 6.52797 1.6806 6.64775 1.67001 6.77444C1.65942 6.90114 1.69033 7.02784 1.75805 7.13533C2.8691 9.19834 5.04425 10.273 7.09811 11.3084ZM7.19592 5.68809C7.23895 4.51147 7.31719 2.7936 8.12309 1.76602C9.04636 3.08776 8.78816 4.95466 8.31479 6.60977C7.94433 7.24481 7.72104 7.95523 7.66146 8.68847C7.62625 9.39444 8.59646 9.36307 8.79598 8.79829C8.9955 8.23351 9.1872 7.64912 9.37107 7.02944C9.62535 6.59409 9.91877 6.18227 10.1535 5.82928C10.9217 4.69069 11.9167 3.72388 13.0759 2.9897C13.8818 2.51513 14.719 2.49945 15.4231 3.16228C15.873 3.58586 15.6305 4.20947 15.3605 4.69188C14.3825 6.45289 12.4147 7.76678 10.8068 8.90026C9.96571 9.4925 9.10113 10.0534 8.22872 10.5985C7.9314 10.4416 7.62234 10.2926 7.31328 10.1357C7.31328 10.1122 7.31328 10.0847 7.31328 10.0573C7.23113 8.59826 7.12941 7.14318 7.17636 5.68024L7.19592 5.68809ZM5.89318 9.39837C4.7448 8.82128 3.74677 7.98322 2.97864 6.95099C4.28138 6.16658 5.32592 8.00995 5.89318 9.39837Z" fill="#53C2BE"/>
</svg>
