<svg width="18" height="24" viewBox="0 0 18 24" fill="none" xmlns="http://www.w3.org/2000/svg">
<path d="M4.15625 20.961V14.4784C4.82325 15.172 6.75625 16.5582 9.15625 16.5582C11.5563 16.5582 13.4893 15.172 14.1562 14.4784V20.961C14.1561 21.1448 14.1091 21.3254 14.0199 21.4842C13.9308 21.6431 13.8028 21.7745 13.6489 21.8651C13.495 21.9557 13.3207 22.0022 13.1439 21.9999C12.967 21.9976 12.7939 21.9466 12.6423 21.8521L9.67025 19.9991C9.51495 19.9023 9.3373 19.8512 9.15625 19.8512C8.9752 19.8512 8.79755 19.9023 8.64225 19.9991L5.67025 21.8511C5.51863 21.9456 5.34563 21.9966 5.16888 21.9989C4.99213 22.0012 4.81795 21.9548 4.66408 21.8643C4.51021 21.7738 4.38214 21.6426 4.29294 21.4839C4.20373 21.3252 4.15657 21.1448 4.15625 20.961Z" fill="#193781" stroke="#193781" stroke-width="2.87565" stroke-linecap="round" stroke-linejoin="round"/>
<path d="M9.15625 16.5582C13.0222 16.5582 16.1562 13.2992 16.1562 9.27908C16.1562 5.25895 13.0222 2 9.15625 2C5.29026 2 2.15625 5.25895 2.15625 9.27908C2.15625 13.2992 5.29026 16.5582 9.15625 16.5582Z" fill="#4069CC" stroke="#4069CC" stroke-width="2.87565" stroke-linecap="round" stroke-linejoin="round"/>
</svg>
