<svg width="25" height="26" viewBox="0 0 25 26" fill="none" xmlns="http://www.w3.org/2000/svg">
<path fill-rule="evenodd" clip-rule="evenodd" d="M18.32 2.52349C18.7107 2.13292 19.2405 1.91351 19.7929 1.91351C20.3453 1.91351 20.8751 2.13292 21.2658 2.52349L22.9179 4.17557C23.3085 4.56625 23.5279 5.09606 23.5279 5.64848C23.5279 6.20091 23.3085 6.73072 22.9179 7.1214L21.2658 8.77349L16.6679 4.17557L18.32 2.52349ZM15.195 5.64848L9.98664 10.8568C9.59591 11.2474 9.37634 11.7772 9.37622 12.3297V13.9818C9.37622 14.5344 9.59571 15.0643 9.98642 15.455C10.3771 15.8457 10.907 16.0652 11.4596 16.0652H13.1116C13.6641 16.065 14.1939 15.8455 14.5846 15.4547L19.7929 10.2464L15.195 5.64848Z" fill="#4069CC"/>
<path d="M6.25122 15.0239H5.20955C4.65702 15.0239 4.12712 15.2434 3.73641 15.6341C3.34571 16.0248 3.12622 16.5547 3.12622 17.1072C3.12622 17.6597 3.34571 18.1896 3.73641 18.5803C4.12712 18.971 4.65702 19.1905 5.20955 19.1905H19.7929C20.3454 19.1905 20.8753 19.41 21.266 19.8007C21.6567 20.1914 21.8762 20.7213 21.8762 21.2739C21.8762 21.8264 21.6567 22.3563 21.266 22.747C20.8753 23.1377 20.3454 23.3572 19.7929 23.3572H15.6262" stroke="#4069CC" stroke-width="3.12109" stroke-linecap="round" stroke-linejoin="round"/>
</svg>
