<svg width="25" height="26" viewBox="0 0 25 26" fill="none" xmlns="http://www.w3.org/2000/svg">
<path d="M13.4897 20.1883L9.36885 16.0675L5.24802 11.9466C5.12773 11.8262 5.03879 11.6781 4.98897 11.5154C4.93915 11.3526 4.92998 11.1801 4.96226 11.013C4.99453 10.8459 5.06727 10.6892 5.1741 10.5567C5.28094 10.4242 5.41862 10.3199 5.5751 10.2529L11.0553 7.90393C11.1812 7.85006 11.2951 7.77192 11.3908 7.67397C11.4864 7.57603 11.5618 7.46019 11.6126 7.33309L12.9491 3.99247C13.0131 3.83251 13.1158 3.69093 13.248 3.58042C13.3802 3.4699 13.5377 3.3939 13.7064 3.35921C13.8752 3.32453 14.05 3.33225 14.215 3.38169C14.3801 3.43112 14.5303 3.52072 14.6522 3.64247L21.7939 10.7841C21.9156 10.9061 22.0052 11.0563 22.0546 11.2213C22.1041 11.3864 22.1118 11.5611 22.0771 11.7299C22.0424 11.8986 21.9664 12.0562 21.8559 12.1884C21.7454 12.3205 21.6038 12.4232 21.4439 12.4873L18.1032 13.8237C17.9761 13.8745 17.8603 13.9499 17.7623 14.0456C17.6644 14.1412 17.5863 14.2552 17.5324 14.381L15.1834 19.8612C15.1165 20.0177 15.0121 20.1554 14.8796 20.2622C14.7471 20.3691 14.5905 20.4418 14.4233 20.4741C14.2562 20.5063 14.0837 20.4972 13.9209 20.4474C13.7582 20.3975 13.6101 20.3086 13.4897 20.1883Z" fill="#4069CC"/>
<path d="M4.16211 21.2758L9.37044 16.0675M9.37044 16.0675L13.4913 20.1883C13.6117 20.3086 13.7598 20.3975 13.9225 20.4474C14.0853 20.4972 14.2578 20.5063 14.4249 20.4741C14.592 20.4418 14.7487 20.3691 14.8812 20.2622C15.0137 20.1554 15.118 20.0177 15.185 19.8612L17.534 14.381C17.5879 14.2552 17.666 14.1412 17.7639 14.0456C17.8619 13.9499 17.9777 13.8745 18.1048 13.8237L21.4454 12.4873C21.6054 12.4232 21.747 12.3205 21.8575 12.1884C21.968 12.0562 22.044 11.8986 22.0787 11.7299C22.1134 11.5611 22.1057 11.3864 22.0562 11.2213C22.0068 11.0563 21.9172 10.9061 21.7954 10.7841L14.6538 3.64247C14.5319 3.52072 14.3816 3.43112 14.2166 3.38169C14.0515 3.33225 13.8768 3.32453 13.708 3.35921C13.5393 3.3939 13.3817 3.4699 13.2496 3.58042C13.1174 3.69093 13.0147 3.83251 12.9507 3.99247L11.6142 7.33309C11.5634 7.46019 11.488 7.57603 11.3924 7.67398C11.2967 7.77192 11.1827 7.85006 11.0569 7.90393L5.57669 10.2529C5.42021 10.3199 5.28253 10.4242 5.17569 10.5567C5.06886 10.6892 4.99612 10.8459 4.96385 11.013C4.93157 11.1801 4.94074 11.3526 4.99056 11.5154C5.04038 11.6781 5.12932 11.8262 5.24961 11.9466L9.37044 16.0675Z" stroke="#4069CC" stroke-width="3.61458" stroke-linecap="round" stroke-linejoin="round"/>
</svg>
