<svg width="65" height="56" viewBox="0 0 65 56" fill="none" xmlns="http://www.w3.org/2000/svg">
<path fill-rule="evenodd" clip-rule="evenodd" d="M54.9292 18.9559C50.8425 17.919 47.6153 14.6919 46.5783 10.6052C45.0814 4.7062 42.7159 0.898438 40.0539 0.898438C37.392 0.898438 35.0265 4.70602 33.5296 10.6048C32.4926 14.6915 29.2652 17.9188 25.1784 18.9555C19.2778 20.4523 15.4688 22.8182 15.4688 25.4806C15.4688 28.1429 19.2774 30.5086 25.1775 32.0055C29.2645 33.0424 32.492 36.2698 33.5287 40.3569C35.0256 46.2577 37.3915 50.0668 40.0539 50.0668C42.7164 50.0668 45.0824 46.2575 46.5792 40.3565C47.6159 36.2695 50.8432 33.0421 54.9301 32.005C60.8293 30.5082 64.6372 28.1426 64.6372 25.4806C64.6372 22.8184 60.8289 20.4528 54.9292 18.9559ZM40.0528 25.4826C40.0528 25.4827 40.0529 25.4828 40.053 25.4828C40.053 25.4828 40.0531 25.4827 40.0531 25.4826C40.0531 25.4826 40.053 25.4825 40.053 25.4825C40.0529 25.4825 40.0528 25.4826 40.0528 25.4826Z" fill="#4069CC"/>
<path fill-rule="evenodd" clip-rule="evenodd" d="M24.6861 41.2393C21.6622 40.0318 19.2444 37.6138 18.0359 34.5904C17.3426 32.856 16.4506 31.8125 15.4773 31.8125C14.5041 31.8125 13.6122 32.8558 12.9189 34.5898C11.7102 37.6133 9.29221 40.0315 6.268 41.2385C4.53017 41.9321 3.48438 42.8251 3.48438 43.7994C3.48438 44.7731 4.52884 45.6655 6.26469 46.3589C9.28943 47.5672 11.7086 49.9861 12.9149 53.0116C13.6087 54.7517 14.5022 55.799 15.4773 55.799C16.4524 55.799 17.346 54.7515 18.0399 53.011C19.246 49.9856 21.665 47.5669 24.6894 46.3582C26.4241 45.6649 27.4679 44.7728 27.4679 43.7994C27.4679 42.8254 26.4228 41.9328 24.6861 41.2393Z" fill="#4069CC"/>
<path fill-rule="evenodd" clip-rule="evenodd" d="M17.6721 11.9769C15.177 10.9806 13.1818 8.98534 12.1855 6.49024C11.6134 5.05746 10.8769 4.19531 10.0734 4.19531C9.26984 4.19531 8.53341 5.05748 7.96128 6.49027C6.96497 8.98536 4.96973 10.9806 2.47465 11.9769C1.04185 12.549 0.179688 13.2855 0.179688 14.089C0.179688 14.8926 1.04184 15.629 2.47462 16.2011C4.96971 17.1974 6.96496 19.1927 7.96125 21.6878C8.53338 23.1206 9.26982 23.9828 10.0734 23.9828C10.8769 23.9828 11.6134 23.1206 12.1855 21.6878C13.1818 19.1927 15.1771 17.1974 17.6722 16.2011C19.105 15.629 19.9672 14.8926 19.9672 14.089C19.9672 13.2854 19.105 12.549 17.6721 11.9769ZM10.0733 14.0891C10.0733 14.0892 10.0733 14.0892 10.0734 14.0892C10.0735 14.0892 10.0736 14.0892 10.0736 14.0891C10.0736 14.089 10.0735 14.0889 10.0734 14.0889C10.0733 14.0889 10.0733 14.089 10.0733 14.0891Z" fill="#4069CC"/>
</svg>
